<svg xmlns="http://www.w3.org/2000/svg" viewBox="0 0 2252.65 1979.5"><defs><style>.cls-1{opacity:0.02;}</style></defs><title>bg-codepen</title><g id="Layer_2" data-name="Layer 2"><g id="Layer_1-2" data-name="Layer 1"><g class="cls-1"><path d="M1962.84,228.06c-1.53-2.19-3-4.36-4.71-6.4-1-1.22-2.12-2.32-3.19-3.5-1.62-1.76-3.23-3.52-5-5.15-1.23-1.12-2.5-2.18-3.76-3.24-1.78-1.5-3.56-2.94-5.45-4.28-1.36-1-2.77-1.9-4.19-2.81-1.94-1.24-3.88-2.41-5.91-3.5-1.49-.81-3-1.58-4.55-2.31-2-1-4.15-1.84-6.28-2.67-1.62-.62-3.24-1.22-4.89-1.74-2.16-.7-4.36-1.28-6.6-1.82-1.71-.4-3.41-.83-5.14-1.14-.62-.12-1.24-.32-1.88-.42L730.88,1.18a92.67,92.67,0,0,0-93.54,42.77L13.73,1052.09c-.34.55-.57,1.14-.91,1.69-.9,1.52-1.68,3.08-2.5,4.64-1,2-2.06,4.1-2.95,6.19-.68,1.59-1.28,3.21-1.85,4.83-.79,2.16-1.5,4.3-2.11,6.5-.46,1.65-.87,3.29-1.23,4.95-.5,2.24-.89,4.48-1.22,6.75-.23,1.67-.48,3.32-.61,5-.22,2.3-.3,4.6-.3,6.91,0,1.65-.08,3.31,0,5,.1,2.39.34,4.77.62,7.15.19,1.58.31,3.13.59,4.69.44,2.61,1.08,5.17,1.76,7.75.32,1.32.59,2.65,1,4a95.41,95.41,0,0,0,4.29,11.37l273.41,598a95.41,95.41,0,0,0,5.79,10.68c.75,1.16,1.57,2.21,2.36,3.32,1.5,2.19,3,4.36,4.71,6.4,1,1.23,2.1,2.35,3.17,3.51,1.62,1.76,3.26,3.51,5,5.17,1.21,1.14,2.49,2.17,3.75,3.22,1.75,1.51,3.53,2.94,5.44,4.32,1.35,1,2.77,1.89,4.17,2.77,1.94,1.24,3.88,2.41,5.91,3.51,1.51.84,3,1.59,4.55,2.31,2.06,1,4.15,1.85,6.29,2.65,1.59.61,3.22,1.24,4.86,1.74,2.16.7,4.4,1.3,6.62,1.84,1.71.4,3.4.82,5.14,1.14.65.11,1.24.31,1.87.4l1170.44,187.9a92.52,92.52,0,0,0,93.54-42.77L2238.89,927.41c.35-.53.61-1.12.92-1.67.89-1.53,1.68-3.08,2.5-4.64,1.06-2,2-4.12,2.93-6.21.69-1.56,1.28-3.21,1.88-4.82.77-2.13,1.5-4.3,2.09-6.48.46-1.65.88-3.27,1.23-5,.5-2.26.88-4.49,1.21-6.77.25-1.64.48-3.31.63-5,.21-2.34.29-4.63.32-6.95,0-1.63.06-3.27,0-4.94-.11-2.41-.38-4.79-.65-7.16-.19-1.57-.31-3.13-.56-4.7-.44-2.61-1.12-5.17-1.76-7.75-.35-1.31-.58-2.64-1-3.95a96,96,0,0,0-4.29-11.36L1971,242.08a96,96,0,0,0-5.79-10.68C1964.46,230.24,1963.6,229.18,1962.84,228.06Zm-745.3,961.21L828,1126.14l207.06-335.9,389.53,63.14Zm-333.75-507L629.94,1094l-385.42-62.48,459.4-742.66ZM524.63,1264.85,378.17,1502.44,249.12,1220.17ZM722.73,1297l477.46,77.36,179.86,393.4L517.83,1629.33Zm646.12.25L1622.7,885.51,2008.14,948l-459.43,742.67ZM1728,714.67l146.49-237.62,129.05,282.27Zm-198.09-32.11-477.47-77.38L872.58,211.78l862.26,138.4Z"/></g></g></g></svg>