<svg xmlns="http://www.w3.org/2000/svg" xmlns:xlink="http://www.w3.org/1999/xlink" viewBox="0 0 1054.09 942.2"><defs><style>.cls-1{fill:none;}.cls-2{opacity:0.01;}.cls-3{clip-path:url(#clip-path);}.cls-4{fill:#fff;}</style><clipPath id="clip-path"><rect class="cls-1" x="212.95" y="70.99" width="932.21" height="834.99"/></clipPath></defs><title>bg-sass</title><g id="Layer_2" data-name="Layer 2"><g id="Layer_1-2" data-name="Layer 1"><g class="cls-2"><g class="cls-3"><path class="cls-4" d="M1036.93,922.3c-33,13.42-53.24,29.12-85,13.18,26.79-6,55.72-9.54,70.17-36.5,5,5.83-3.86,11.87,19.13,15.8Z"/><path class="cls-4" d="M911.59,540.58c-10.44,10-19.71,3.93-29-2.13-10.81-7.07-16.9-7-25.32,6.31-6.18,9.79-15.23,26.3-33.93,19.53,11.22-11,21.76-22.78,33.83-32.72C878.14,514.36,894.4,531.67,911.59,540.58Z"/><path class="cls-4" d="M772.33,505.16c-17.72-9-33.24-25.21-56.45-16.61-2.07.77-1.32-4.35-.45-6.84C733.91,475.2,757.51,484.93,772.33,505.16Z"/><path class="cls-4" d="M485.7,334c21.57,5.65,40,16.71,56.1,32A370,370,0,0,1,485.7,334Z"/><path class="cls-4" d="M902.69,579.41c.68-12.73,10-21.24,15.41-31.68,8,5.6,7.42,11.18.3,17.21C913,569.53,907.92,574.57,902.69,579.41Z"/><path class="cls-4" d="M897.06,311.43a65.38,65.38,0,0,1,21.21-36.94A123.87,123.87,0,0,1,897.06,311.43Z"/><path class="cls-4" d="M1010.11,758.3c-34.65-34-78.33-56.78-126.79-63.18-15.26-2-20.79-7.35-20.06-23.07,1.7-36.29,14.56-66.89,39.89-92.38,3-11.59,17.41-17.67,15.19-31.81-.41-4-3.17-6-6.63-7.21-9.68,1.3-18.1-2.54-26.34-6.83-12.14-6.32-21.25-6.5-30.41,7.06-7.14,10.56-17.38,20.6-31.57,23.41-35.29,21-68.93,45-107.88,62.68-.33-41.65,16.13-73,44.35-98.87,6.87-6.31,15.1-11.59,12.47-22.94-16-14.95-34.46-24.07-56.9-23.46-71,60.11-147.34,112.66-225.36,163.09,2-13.87,9.39-23.48,17.74-32.24,21.82-22.88,44-45.4,66-68.13,10.6-10.95,18.4-27.08,2.42-34.25-22.26-10-10.21-18.86-4.53-29.6,16.78-31.76,6.05-55.09-29.16-62-29.29-5.74-57.38,1.11-85,10.16-8.26,2.71-16.32,5.46-25.18,5.28-34.58-.67-69.17-1.3-103.76-1.69-7.73-.08-13-.9-15.53-10.34-12.06-45.45-34.34-87.17-49.43-131.49-15.71-46.11-24.5-92.28,9.7-135.66,23-29.24,53.83-45.73,88.34-54.94,121-32.27,241.47-25.84,359.76,12.15,49.4,15.87,96.11,39.86,127.65,84.55,17.59,24.91,19.68,50.35,2,76.31-27.11,39.71-67.89,57-112.39,66.54-77.52,16.69-152.11,4.77-222.9-29.2C484,295,458.38,271.83,446.38,236.87c-2-5.76-1-15.23-9.89-13.71-7.42,1.26-6.43,10.09-7.27,16.39-1.27,9.61,1.4,18.63,4.35,27.52,9.45,28.46,28.05,49.86,52.13,67,19.87,8.63,38.27,19.82,56.1,32,37.05,16.5,75.48,29,115.88,32.74,93.26,8.59,176-13.24,239.38-87.35a217.88,217.88,0,0,1,21.2-36.94c20.47-50,4.5-94.46-27-132.89-14.19-17.31-37.23-22-46-50.19L773.86,50.33c-24.37-14-52.62-23.09-81.13-28.62C571.33-1.86,445.32-12.74,324.25,23.17c-47.1,14-85,37.84-127.08,70.77l-21.62,37.56c2.44,35.86-5.05,60.31,1.63,89.65,9.34,41,25.4,81.59,44.21,119.21,10.65,21.31,20.92,43.92,31.15,65.42,6.26,13.16,4.05,18.5-11.14,17.93-35.39-1.31-70.59,0-105.51,5.85s-68.26,11-96.43,35.44c-47,40.8-54.84,101.34-8.12,128.23L72.66,617c43.25,24.89,89.48,20.75,134.78,2.56,59.27-23.81,94.26-68.33,112.73-127.6,5.12-16.44,11.94-22.82,28.39-20.38,8.11,1.21,16.73-1.56,25,2.74-4.6,9.88-13.64,15.14-16.47,24.4-9.79,22.45-22.49,43.35-36.12,63.65-9.54,17.81-11.1,37.38-10.85,56.85.45,34.56,34.48,55.73,65.83,41.34,20.29-9.31,38.41-22.15,58.42-38a83.51,83.51,0,0,0-16.9,39.68c-4.29,27.44,11.6,43.37,38.85,39.26,15.94-2.4,30.45-8.83,44.11-17.17,41.25-25.2,82.58-50.21,121.25-79.43,14.55-11,29.15-22.19,48.16-35.88-7.5,22.53-11.88,40.31-11.68,58.24.22,19-8.24,27.85-25,35.23C604.7,675,573.39,679.64,546.24,695c-25.29,14.29-26.31,35-1.37,49.79,37.27,22.1,77.32,26.63,118.55,11.48,10.17-3.74,19.47-9.62,24.57-20.08,4.5-13.36,11.73-25.22,20.16-36.42,6.94-10,3.8-26,15.8-32.18,30.92-16,60.32-34.67,91.82-52.7-.52,17.19-9.41,30.3-5.89,45.09,4.87,11.6,11.38,23.57-6.9,29.78a328,328,0,0,0-35.55,9.13c-25.83,8.5-48.71,21.91-66.1,43.14-17.11,20.89-12.47,46.56,9.47,56.43,58,26.11,122.82,1.46,148.58-57,3.79-8.6,8-13,17.81-10.47,44.78,11.37,82,35.06,112.06,69.7a116,116,0,0,1,27,97.33c4.18,9.16-.83,17.76,25,16.72L1052.08,896C1059.11,839.89,1048.3,795.77,1010.11,758.3ZM112.77,574.38c-16.49-3-34.46-7.18-39.49-25.38-5.3-19.15,9.5-32.15,22-43.39,17.45-15.64,39.32-24.15,62.06-28.34a599,599,0,0,1,94.19-9.78c24.57-.6,25.25.83,14.12,23.56-2.21,4.52-4.51,9-5.79,11.56C230.19,555.44,169.54,584.65,112.77,574.38Zm405.1-78.1c-34.79,34.51-73,65-112.74,93.72a135.22,135.22,0,0,1-16.66,10c-4.41,2.3-9.68,5.63-14.19,2.25-5.33-4-3.6-11-2.08-16.1,3.25-11,8-21.55,10.79-29,29.14-44.71,65.7-74.85,112.06-93a13.85,13.85,0,0,1,2-.74c13.31-2.83,30.52-9.19,38.25,3C543.83,479.72,526.22,488,517.87,496.28Zm55.8,224.52,74.11-25.47C630.13,722.36,603.35,725.57,573.67,720.8Zm156.11,48.5c18-27,44.41-37.56,73.91-45.71C798.05,759.68,768.26,778,729.78,769.3Z"/><path class="cls-4" d="M323.18,566.1c7.81-25.28,22.82-46.4,38.69-67C353.37,524,340.74,546.46,323.18,566.1Z"/><path class="cls-4" d="M807.1,694.72c6.49-11.19,1.39-24.51,6.55-35.95C824.19,673.08,825.5,685.7,807.1,694.72Z"/><path class="cls-4" d="M705.63,696.79c-5,13.65-11.55,26.37-21.21,37.34C686.54,718.86,694,706.63,705.63,696.79Z"/></g></g></g></g></svg>