<svg xmlns="http://www.w3.org/2000/svg" viewBox="0 0 1008.53 928.18"><defs><style>.cls-1{fill:#fff;opacity:0.018;}</style></defs><title>bg-sass_3</title><g id="Layer_2" data-name="Layer 2"><g id="Layer_1-2" data-name="Layer 1"><path class="cls-1" d="M927.49,713a226.51,226.51,0,0,0-96.22-33.06c2.06-22.52,3-43.17,8.42-55.3,6.46-14.11,9.41-23.34,21.19-37.66s34.81-30.79,35.7-32.59,4-10.93-14.53-22.75-37-18.16-41.89-14.41A241.12,241.12,0,0,0,815.1,540c-13.81,14.93-85.69,54.12-125,73.62,1.47-16.29,2.82-30.52,7-39.9,6.46-14.11,9.41-23.34,21.19-37.66s34.81-30.79,35.7-32.59,4-10.93-14.53-22.75-37-18.16-41.89-14.41-14.17,14-25.06,22.74S553.29,570.45,525.11,589.13c-14.47,9.57-26.4,17-34.68,21.92h0a9.11,9.11,0,0,1-1.53.93c-7.14,4.26-11.12,6.48-11.12,6.48l-.11.17c-5.4,3-10.76,5.53-12.12,4.68-1-.64,4.75-14,18.35-28.59,28.71-30.83,78.92-75.33,79.91-77.3.64-1,9.62-8.6-.86-22-10.14-13.18-20-8-21.16-8.75s-3.83,1.61-3.83,1.61,53.09-52.12,10.23-78.92c-26.77-16.74-82-10.52-116.86,4.47-15.44-.94-48.38-2.91-83.65-4.93-13.49-.66-27.32-1.53-40.27-2.32-.25-1.1-.4-2.37-.66-3.47-17.2-87.82-88.63-186.93-38-258.76C287.19,118.19,341,52.85,568.37,74.82,755,93.72,856.33,184.18,849,239.68c-10.44,79.26-171,138.17-328.8,62.61-60.17-28.9-76.09-69-78.46-81.82-2.5-13.34-3.36-14.59-7.3-14.7-6.33-.43-8.05,9.11-9.11,14.57-2.8,14.28,2.62,45.94,27,75.12,21.6,25.76,84.44,71.89,183.52,91,110.9,21.27,240.78-31.15,270.6-124.45C937,167.47,818.32,55.77,661.56,21.15,568.36.58,459-8.42,364.76,10c-112,21.9-159.07,72.34-169.54,99.26-37,95.67,46,224.87,67.4,295.5-3.22-.13-6.16-.32-8.66-.47-30.86-3-150-12.25-203.41,23.4C-10,468-5.77,526.78,10.32,544.39c50,54.6,131,63.32,195.56,34.38s100.93-96.21,104.05-135.5a4.18,4.18,0,0,0,0-1.44c8.32.26,16.92.45,25.25.7,16.48.41,32.47,1.21,46,2.15-15.61,12.15-31.61,28.31-50.59,54.15-22.46,30.26-35.26,79.76-28.32,106.73,3.17,11.88,12,17.67,17.81,21.27,20,12.5,39.36,1.51,61.64-11.89,27.24-16.43,55.74-37.5,55.74-37.5s-61,67-23.7,90.29c13.55,8.48,38.3-.56,50-5.73l-.11.17s.66-.3,2.08-1.06l4.43-2.18.21-.34c11.35-6.1,37-20,77.49-44.4,52.2-31.46,110.75-75,110.75-75s-6.76,15.33-14.43,43.06c-4.52,16.27-5.47,36.64-7.81,55.45-10.19,4.23-16.23,6.35-16.23,6.35l.06.28c-8,3-16.67,6.31-25.74,9.12-32.24,10.48-70.05,22-77.66,27.33-9,6.42-12,13.21-8.44,22.54,2.58,6.8,11.08,12.82,20.37,17.92,17.35,9.2,31.58,12.44,38.93,13.5a134.8,134.8,0,0,0,39,2.91c26.5-2,49.48-14.31,64.25-40.19,8.18-14.21,12.29-31,14.86-47.51,3.18-1.31,6.19-2.73,9.36-4,54.8-23.94,105.71-56,105.71-56S794,605.28,786.38,633c-4,14-5.13,31.2-6.87,47.55-40.61,5-73.1,20-89.41,32.94-30,24.16-30.34,43.25-16.6,56.32,6.16,6,18.45,8.94,27.92,10.39a132.89,132.89,0,0,0,41.41,3.5c26.5-2,55.6-9.77,70.37-35.65,6.7-11.84,10.74-25.1,13.4-38.76,28.81,4.81,61.57,18,96.43,45.92,74.72,59.92,59.18,120.2,42.88,139.47s-40.44,20.2-48.26,20.26-10.42.08-11.5,2.94c-1.65,4.15,1.16,5.68,6.33,8,7.35,2.95,53.06,9.37,79-28.64C1025.11,849,1011.68,764.93,927.49,713ZM174.18,533.72c-45,12.4-89.15.11-99.42-19.28-11-20.8,22.66-59.6,74.81-69.88,31.75-6.31,68.42-7.65,92.21-7.63,5.38.06,13.26.28,22.85.39,1.61.06,2.5.15,2.5.15h5.66C257.27,489,221.49,520.64,174.18,533.72Zm277.69-10.66c-23.52,16.88-79.34,62.81-89.19,52.17-8.47-9.07,12.81-57,54.44-91.58,21-17.3,52.69-33.75,68-38.3,24.74-7.15,44.23-2.51,44,6.53C528.65,463.6,466.54,512.44,451.88,523.07ZM564.57,700.53c-5.17-.4-9.74-1.38-10.8-3.45-.76-1.42,3.81-2.33,3.81-2.33s33.72-9.08,47.83-13.93c8.18-2.9,17.84-6.29,28.36-10.31l-1.38,2.2C616.19,698.63,580.2,700.41,564.57,700.53Zm141.72,49.26c-1.61-3.83,3.14-10.29,26-25.43,8.92-6,26.42-14.36,49.87-18.31-1.7,6.48-3.79,12.48-7,17.28C754.53,755.92,723.53,753.5,706.28,749.79Z"/></g></g></svg>
