<svg id="Layer_1" data-name="Layer 1" xmlns="http://www.w3.org/2000/svg" xmlns:xlink="http://www.w3.org/1999/xlink" viewBox="0 0 1556.94 755.68"><defs><style>.cls-1{fill:none;}.cls-2{fill:#32353d;}.cls-3,.cls-7{font-size:21px;font-family:Monaco, Monaco;}.cls-3{fill:#4a4c51;}.cls-4{fill:#c33151;}.cls-5{fill:#181c21;}.cls-6{clip-path:url(#clip-path);}.cls-7{fill:#b7c0cb;}.cls-22,.cls-8{fill:#3dbfa0;}.cls-20,.cls-9{fill:#7766c3;}.cls-10{fill:#00c3e2;}.cls-11,.cls-19{fill:#f1f1f1;}.cls-12,.cls-25{fill:#fe626d;}.cls-13{fill:#586775;}.cls-14,.cls-18{fill:#fdd569;}.cls-15{fill:#24262b;}.cls-16{clip-path:url(#clip-path-2);}.cls-17{clip-path:url(#clip-path-3);}.cls-18,.cls-19,.cls-20,.cls-21,.cls-22,.cls-23,.cls-24,.cls-25{letter-spacing:0em;}.cls-23{fill:#989898;}.cls-24{fill:gray;}</style><clipPath id="clip-path" transform="translate(0 -1)"><path class="cls-1" d="M.71,11H844.47a0,0,0,0,1,0,0V681a0,0,0,0,1,0,0H.71A10.71,10.71,0,0,1-10,670.26V21.71A10.71,10.71,0,0,1,.71,11Z"/></clipPath><clipPath id="clip-path-2" transform="translate(0 -1)"><path class="cls-1" d="M217.91,49.53H854.56a0,0,0,0,1,0,0V700.7a0,0,0,0,1,0,0H217.91a9.18,9.18,0,0,1-9.18-9.18V58.7A9.18,9.18,0,0,1,217.91,49.53Z"/></clipPath><clipPath id="clip-path-3" transform="translate(0 -1)"><path class="cls-1" d="M209.44,59.53H1053.2a0,0,0,0,1,0,0v670a0,0,0,0,1,0,0H209.44a10.71,10.71,0,0,1-10.71-10.71V70.23A10.71,10.71,0,0,1,209.44,59.53Z"/></clipPath></defs><title>code</title><path class="cls-2" d="M10.56,0H854.47a0,0,0,0,1,0,0V651.17a0,0,0,0,1,0,0H10.56A10.56,10.56,0,0,1,0,640.62V10.56A10.56,10.56,0,0,1,10.56,0Z"/><text class="cls-3" transform="translate(32.88 84.74)">1<tspan x="0" y="33">2</tspan><tspan x="0" y="66">3</tspan><tspan x="0" y="99">4</tspan><tspan x="0" y="132">5</tspan><tspan x="0" y="165">6</tspan><tspan x="0" y="198">7</tspan><tspan x="0" y="231">8</tspan><tspan x="0" y="264">9</tspan><tspan x="0" y="297">10</tspan><tspan x="0" y="330">11</tspan><tspan x="0" y="363">12</tspan><tspan x="0" y="396">13</tspan><tspan x="0" y="429">14</tspan><tspan x="0" y="462">15</tspan><tspan x="0" y="495">16</tspan><tspan x="0" y="528">17</tspan></text><circle class="cls-4" cx="37.88" cy="32.39" r="8.7"/><circle class="cls-5" cx="73.83" cy="32.39" r="8.7"/><circle class="cls-5" cx="109.78" cy="32.39" r="8.7"/><g class="cls-6"><text class="cls-7" transform="translate(75.41 84.48)">.<tspan class="cls-8" x="12.6" y="0">track </tspan><tspan x="88.21" y="0">{</tspan><tspan x="0" y="33" xml:space="preserve">  position: </tspan><tspan class="cls-9" x="151.22" y="33">relative</tspan><tspan x="252.03" y="33">;</tspan><tspan x="0" y="66" xml:space="preserve">  padding-top: </tspan><tspan class="cls-10" x="189.02" y="66">(</tspan><tspan class="cls-11" x="201.63" y="66">$grid-gutter-width</tspan><tspan class="cls-9" x="428.45" y="66">/2</tspan><tspan class="cls-10" x="453.66" y="66">)</tspan><tspan x="466.26" y="66">;</tspan><tspan x="0" y="99" xml:space="preserve">  padding-bottom: </tspan><tspan class="cls-10" x="226.83" y="99">(</tspan><tspan class="cls-11" x="239.43" y="99">$grid-gutter-width</tspan><tspan class="cls-9" x="466.26" y="99">/2</tspan><tspan class="cls-10" x="491.46" y="99">)</tspan><tspan x="504.06" y="99">;</tspan><tspan x="0" y="132" xml:space="preserve">  border-top: </tspan><tspan class="cls-9" x="176.42" y="132">1</tspan><tspan class="cls-12" x="189.02" y="132">px</tspan><tspan x="214.23" y="132"> </tspan><tspan class="cls-9" x="226.83" y="132">solid </tspan><tspan class="cls-11" x="302.44" y="132">$gray-light</tspan><tspan x="441.05" y="132">;</tspan><tspan x="0" y="165" xml:space="preserve">  cursor: </tspan><tspan class="cls-9" x="126.02" y="165">pointer</tspan><tspan x="214.23" y="165">;</tspan><tspan x="0" y="198" xml:space="preserve">  transition: background </tspan><tspan class="cls-9" x="315.04" y="198">100</tspan><tspan class="cls-12" x="352.84" y="198">ms</tspan><tspan x="378.05" y="198"> </tspan><tspan class="cls-9" x="390.65" y="198">ease-in</tspan><tspan x="478.86" y="198">;</tspan><tspan class="cls-13"><tspan x="0" y="264" xml:space="preserve">  /* Apply a darker bg color when hovering or focusing track rows except if track row is open */</tspan></tspan><tspan x="0" y="297" xml:space="preserve">  </tspan><tspan class="cls-10" x="25.2" y="297">&amp;</tspan><tspan x="37.8" y="297">:</tspan><tspan class="cls-8" x="50.41" y="297">hover</tspan><tspan x="113.41" y="297">, </tspan><tspan class="cls-10" x="138.62" y="297">&amp;</tspan><tspan class="cls-8" x="151.22" y="297">--focused</tspan><tspan x="264.63" y="297" xml:space="preserve"> {</tspan><tspan x="0" y="330" xml:space="preserve">    </tspan><tspan class="cls-14" x="50.41" y="330">:host-context</tspan><tspan x="214.23" y="330">(:not(.track-row--open)) &amp; {</tspan><tspan x="0" y="363" xml:space="preserve">      background: </tspan><tspan class="cls-11" x="226.83" y="363">$xs-track-hover-focused-bg-color</tspan><tspan x="630.08" y="363">;</tspan><tspan x="0" y="396" xml:space="preserve">    }</tspan><tspan x="0" y="429" xml:space="preserve">  }</tspan><tspan class="cls-13"><tspan x="0" y="495" xml:space="preserve">  /* Apply a lighter bg color to previously played tracks except when hovered or focused */</tspan></tspan><tspan x="0" y="528"> </tspan><tspan class="cls-10" x="12.6" y="528" xml:space="preserve"> &amp;</tspan><tspan class="cls-8" x="37.8" y="528">--played</tspan><tspan x="138.62" y="528">:</tspan><tspan class="cls-8" x="151.22" y="528">not</tspan><tspan x="189.02" y="528">(:</tspan><tspan class="cls-8" x="214.23" y="528">hover</tspan><tspan x="277.23" y="528">):</tspan><tspan class="cls-8" x="302.44" y="528">not</tspan><tspan x="340.24" y="528">(</tspan><tspan class="cls-10" x="352.84" y="528">&amp;</tspan><tspan class="cls-8" x="365.45" y="528">--focused</tspan><tspan x="478.86" y="528">) {</tspan></text></g><path class="cls-15" d="M217.91,48.53H854.56a0,0,0,0,1,0,0V699.7a0,0,0,0,1,0,0H217.91a9.18,9.18,0,0,1-9.18-9.18V57.7A9.18,9.18,0,0,1,217.91,48.53Z"/><text class="cls-3" transform="translate(241.61 133.26)">1<tspan x="0" y="33">2</tspan><tspan x="0" y="66">3</tspan><tspan x="0" y="99">4</tspan><tspan x="0" y="132">5</tspan><tspan x="0" y="165">6</tspan><tspan x="0" y="198">7</tspan><tspan x="0" y="231">8</tspan><tspan x="0" y="264">9</tspan><tspan x="0" y="297">10</tspan><tspan x="0" y="330">11</tspan><tspan x="0" y="363">12</tspan><tspan x="0" y="396">13</tspan><tspan x="0" y="429">14</tspan><tspan x="0" y="462">15</tspan><tspan x="0" y="495">16</tspan><tspan x="0" y="528">17</tspan></text><circle class="cls-4" cx="246.61" cy="80.91" r="8.7"/><circle class="cls-5" cx="282.56" cy="80.91" r="8.7"/><circle class="cls-5" cx="318.51" cy="80.91" r="8.7"/><g class="cls-16"><g class="cls-17"><text class="cls-7" transform="translate(284.14 133.01)"><tspan xml:space="preserve">  </tspan><tspan class="cls-18" x="25.2" y="0">onFavourite</tspan><tspan class="cls-19" x="163.83" y="0">()</tspan><tspan x="189.03" y="0" xml:space="preserve"> {</tspan><tspan x="0" y="33" xml:space="preserve">    </tspan><tspan class="cls-8" x="50.41" y="33">if </tspan><tspan x="88.21" y="33">(</tspan><tspan class="cls-9" x="100.82" y="33">this</tspan><tspan x="151.22" y="33">._user.isLoggedIn) {</tspan><tspan x="0" y="66" xml:space="preserve">      </tspan><tspan class="cls-20" x="75.61" y="66">this</tspan><tspan class="cls-21" x="126.02" y="66">._favouritesService.toggleFavourite(</tspan><tspan class="cls-20" x="579.69" y="66">this</tspan><tspan class="cls-21" x="630.1" y="66">.track);</tspan><tspan x="0" y="99" xml:space="preserve">    } </tspan><tspan class="cls-22" x="75.61" y="99">else </tspan><tspan x="138.62" y="99">{</tspan><tspan x="0" y="132" xml:space="preserve">      </tspan><tspan class="cls-19" x="75.61" y="132">let </tspan><tspan class="cls-23" x="126.02" y="132">gaEvent </tspan><tspan class="cls-21" x="226.84" y="132">= </tspan><tspan class="cls-12" x="252.04" y="132">new </tspan><tspan x="302.45" y="132">GAEvent(&apos;register&apos;, &apos;user&apos;, &apos;favourite&apos;);</tspan><tspan x="0" y="165" xml:space="preserve">      </tspan><tspan class="cls-19" x="75.61" y="165">let </tspan><tspan class="cls-24" x="126.02" y="165">dialog </tspan><tspan class="cls-21" x="214.23" y="165">= </tspan><tspan class="cls-9" x="239.44" y="165">this</tspan><tspan x="289.85" y="165">._modalService.open(LoginRegisterComponent, [ModalService, CEP], {}, gaEvent);</tspan><tspan x="0" y="231" xml:space="preserve">      dialog.then((modal) </tspan><tspan class="cls-20" x="327.65" y="231">=&gt;</tspan><tspan x="352.86" y="231" xml:space="preserve"> {</tspan><tspan x="0" y="264" xml:space="preserve">        modal.result().then((validLogin) </tspan><tspan class="cls-25" x="516.68" y="264">=&gt;</tspan><tspan x="541.89" y="264" xml:space="preserve"> {</tspan><tspan x="0" y="297" xml:space="preserve">          </tspan><tspan class="cls-22" x="126.02" y="297">if </tspan><tspan class="cls-21" x="163.83" y="297">(validLogin) {</tspan><tspan x="0" y="330" xml:space="preserve">            </tspan><tspan class="cls-9" x="151.22" y="330">this</tspan><tspan x="201.63" y="330">._favouritesService.toggleFavourite(</tspan><tspan class="cls-9" x="655.31" y="330">this</tspan><tspan x="705.71" y="330">.track);</tspan><tspan x="0" y="363" xml:space="preserve">          }</tspan><tspan x="0" y="396" xml:space="preserve">        });</tspan><tspan x="0" y="429" xml:space="preserve">      });</tspan><tspan x="0" y="462" xml:space="preserve">    }</tspan><tspan x="0" y="495" xml:space="preserve">  }</tspan></text></g></g></svg>