<svg xmlns="http://www.w3.org/2000/svg" viewBox="0 0 115.35 114.98"><defs><style>.cls-1{fill:#f3f5f6;}</style></defs><title>dolphin</title><g id="Layer_2" data-name="Layer 2"><g id="Layer_1-2" data-name="Layer 1"><path class="cls-1" d="M71.85,114.48C75.93,85.91,90,60.06,101.36,39.21c8.39-15.4,15.63-28.7,13.66-35-.68-2.19-1.82-3.47-3.57-4,.45,5-2.34,15.43-19.93,35.66L88,32.74C106.49,11.51,107.13,2.64,106.68,0c-7.47,1.3-17.6,8.07-21.57,11.17l-1.16.91-1.3-.69C69.75,4.64,55.18,8.57,39.33,23.08,18.93,41.78,3,72.15,0,78.2,23.18,118.32,63.37,115.56,71.85,114.48ZM50.69,26.56a5.42,5.42,0,1,1-.33,7.66A5.42,5.42,0,0,1,50.69,26.56Z"/></g></g></svg>
