<svg xmlns="http://www.w3.org/2000/svg" viewBox="0 0 180.52 180.55"><defs><style>.cls-1{fill:#feca04;}</style></defs><title>logo-anw</title><g id="Layer_2" data-name="Layer 2"><g id="Layer_1-2" data-name="Layer 1"><path class="cls-1" d="M90.26,0a90.28,90.28,0,1,0,90.26,90.3A90.28,90.28,0,0,0,90.26,0ZM81.34,27.76a10.24,10.24,0,0,1,17.87-.07c1.3,2.49,33.52,72.35,33.52,72.35-3.42,3-8.55,5.46-12.63,5.72a9.86,9.86,0,0,1-9.25-4.42c-2.53-3.57-2-9-1.19-21.85.22-3.72,0-8.29-3-9.59-2.75-1.23-4.87.89-7.88,3.46-2.16,1.82-16.42,14.9-23.93,22.11.74-2.12,5.69-15.87,5.05-21.66-.82-7.21-7.51-11.44-14.27-12.23C68,56.52,78.7,33.29,81.34,27.76Zm52.06,112.4c-3.23-.67-6.21-2.6-8.17-7.51-1.23-3-4-6.47-8.18-6.47H63.69c-3.27,0-6.21,2.08-8.18,6.43-2.56,5.76-6.65,8.43-12.3,7.51A10.22,10.22,0,0,1,36,125.48c.89-2,27.09-58.56,27.09-58.56,9.4,1.75,9.51,8.84,8.88,12.26-1.63,8.58-8,24.56-8.4,25.9-.56,2.08-.37,5.13,1.75,6.06,1.86.78,3.64.41,5.5-1.12,2.86-2.3,28.2-26.31,30.69-28.65,0,4.42-.11,8.84-.15,13.27-.07,11.37,7.65,14.64,10.85,15.94,8.25,3.31,19-2.79,22.59-6,1.15,2.45,8,16.5,9.85,21.25,3.6,9.22-4.42,15.79-11.3,14.34Z"/></g></g></svg>