<svg xmlns="http://www.w3.org/2000/svg" viewBox="0 0 140.24 25.31"><defs><style>.cls-1{fill:#fff;}</style></defs><title>logo-codepen</title><g id="Layer_2" data-name="Layer 2"><g id="Layer_1-2" data-name="Layer 1"><path class="cls-1" d="M8.81,6.21A6.41,6.41,0,0,1,13,7.72l1.52-1.82a8.81,8.81,0,1,0,0,13.49L13,17.59A6.44,6.44,0,1,1,8.81,6.21Z"/><path class="cls-1" d="M57.6,4.35H52.85a1.19,1.19,0,0,0-1.19,1.19V19.77A1.19,1.19,0,0,0,52.85,21H57.6a8.3,8.3,0,1,0,0-16.61Zm0,14.24H54V6.72H57.6a5.93,5.93,0,1,1,0,11.86Z"/><path class="cls-1" d="M72.33,5.54V19.77A1.19,1.19,0,0,0,73.52,21H83.4V18.59H74.7V13.84h5.54V11.47H74.7V6.72h8.7V4.35H73.52A1.19,1.19,0,0,0,72.33,5.54Z"/><path class="cls-1" d="M108.24,5.54V19.77A1.19,1.19,0,0,0,109.43,21h9.89V18.59h-8.7V13.84h5.54V11.47h-5.54V6.72h8.7V4.35h-9.89A1.19,1.19,0,0,0,108.24,5.54Z"/><path class="cls-1" d="M97,4.35H91.81a1.19,1.19,0,0,0-1.19,1.19V21H93V13.84h4a4.75,4.75,0,1,0,0-9.49Zm0,7.12H93V6.72h4a2.37,2.37,0,0,1,0,4.75Z"/><path class="cls-1" d="M137.86,4.35V16.5L128.1,4.78a1.19,1.19,0,0,0-2.1.76V21h2.37V8.81l9.77,11.72a1.19,1.19,0,0,0,2.1-.76V4.35Z"/><path class="cls-1" d="M44.93,8.61l0-.09,0-.05,0-.08,0-.05,0-.07,0-.05,0-.07,0,0L44.63,8l0,0-.06-.05,0,0h0L32.89.18a1.09,1.09,0,0,0-1.21,0L20.12,7.89h0l0,0L20,8l0,0-.05.06,0,0,0,.07,0,.05,0,.07,0,.05,0,.08,0,.05,0,.09v0a1.12,1.12,0,0,0,0,.14v7.71a1.12,1.12,0,0,0,0,.14v0l0,.09,0,.05,0,.08,0,.05,0,.07,0,0,0,.07,0,0,.05.06,0,0,.06.05,0,0h0l11.57,7.71a1.09,1.09,0,0,0,1.21,0l11.57-7.71h0l0,0,.06-.05,0,0,.05-.06,0,0,0-.07,0,0,0-.07,0-.05,0-.08,0-.05,0-.09v0a1.13,1.13,0,0,0,0-.14V8.8a1.13,1.13,0,0,0,0-.14ZM32.29,15.23l-3.85-2.57,3.85-2.57,3.85,2.57Zm-1.09-7-4.72,3.15L22.68,8.8,31.2,3.12Zm-6.67,4.46-2.72,1.82V10.83Zm2,1.31,4.72,3.15v5.07l-8.52-5.68Zm6.89,3.15L38.09,14l3.81,2.55-8.52,5.68Zm6.67-4.46,2.72-1.82v3.64Zm-2-1.31L33.38,8.19V3.12L41.9,8.8Z"/></g></g></svg>