<svg xmlns="http://www.w3.org/2000/svg" viewBox="0 0 246.1 184.56"><defs><style>.cls-1{fill:#cc6798;}</style></defs><title>logo-sass_1@2x</title><g id="Layer_2" data-name="Layer 2"><g id="Layer_1-2" data-name="Layer 1"><path class="cls-1" d="M211.92,106.1a51,51,0,0,0-22.3,5.17c-2.29-4.54-4.59-8.59-5-11.55-.45-3.46-1-5.57-.45-9.71s3-10,2.92-10.47-.54-2.56-5.48-2.61-9.22.94-9.71,2.25a54.24,54.24,0,0,0-2.07,7.33C169,91,160,107,154.78,115.45c-1.66-3.28-3.1-6.16-3.42-8.45-.45-3.46-1-5.57-.45-9.71s3-10,2.92-10.47-.54-2.56-5.48-2.61-9.22.94-9.71,2.25-1,4.36-2.07,7.33-13,29.76-16.18,36.68c-1.62,3.55-3,6.38-4,8.32h0a2,2,0,0,1-.18.36c-.85,1.66-1.35,2.56-1.35,2.56v0c-.67,1.21-1.39,2.34-1.75,2.34s-.76-3.24.09-7.64c1.8-9.31,6.07-23.78,6-24.27,0-.27.81-2.79-2.79-4.09s-4.76.85-5.08.85-.54.76-.54.76,3.91-16.27-7.46-16.27c-7.1,0-16.9,7.78-21.76,14.79-3.06,1.66-9.57,5.21-16.54,9-2.65,1.48-5.39,3-8,4.36-.18-.18-.36-.4-.54-.58-13.76-14.7-39.2-25.08-38.12-44.82.4-7.19,2.88-26.07,48.86-49,37.85-18.66,68-13.49,73.18-2,7.46,16.36-16.14,46.75-55.25,51.16C70.32,78,62.5,72.25,60.52,70.09s-2.38-2.38-3.15-1.93c-1.26.67-.45,2.7,0,3.87,1.17,3.06,6,8.45,14.11,11.1,7.19,2.34,24.68,3.64,45.85-4.54,23.69-9.17,42.21-34.66,36.77-56C148.67.91,112.71-6.24,78.68,5.86,58.45,13,36.51,24.38,20.73,39.12,2,56.65-1,71.89.24,78.27c4.36,22.66,35.6,37.4,48.1,48.32-.63.36-1.21.67-1.71.94-6.25,3.1-30.07,15.55-36,28.72-6.74,14.92,1.08,25.62,6.25,27.06,16,4.45,32.55-3.55,41.4-16.77S66,136.17,62,128.3a.94.94,0,0,0-.18-.27l4.9-2.88c3.19-1.89,6.34-3.64,9-5.08a59.25,59.25,0,0,0-3.19,16.36c-.67,8.45,2.79,19.42,7.33,23.73a8.1,8.1,0,0,0,5.93,1.93c5.3,0,7.69-4.41,10.34-9.62,3.24-6.38,6.16-13.8,6.16-13.8s-3.64,20,6.25,20c3.6,0,7.24-4.68,8.86-7.06v0s.09-.13.27-.45l.58-.94v-.09c1.44-2.52,4.68-8.23,9.48-17.71C133.92,120.3,139.9,105,139.9,105a78.12,78.12,0,0,0,2.38,9.93c1.08,3.64,3.33,7.64,5.12,11.51-1.44,2-2.34,3.15-2.34,3.15l0,0c-1.17,1.53-2.43,3.19-3.82,4.81-4.9,5.84-10.74,12.54-11.55,14.47-.94,2.29-.72,4,1.08,5.3,1.3,1,3.64,1.12,6,1a27.66,27.66,0,0,0,9-2.07,30.32,30.32,0,0,0,7.78-4.09,17.4,17.4,0,0,0,7.46-15.33,31,31,0,0,0-2.83-10.83c.45-.63.85-1.26,1.3-1.89a205.92,205.92,0,0,0,13.49-23.29,78.12,78.12,0,0,0,2.38,9.93c.9,3.15,2.74,6.56,4.36,9.89-7.15,5.8-11.55,12.54-13.13,16.95-2.83,8.18-.63,11.87,3.55,12.72,1.89.4,4.59-.49,6.56-1.35a29.89,29.89,0,0,0,8.32-4.27c4.81-3.55,9.44-8.5,9.17-15.19a28.72,28.72,0,0,0-2.07-9c6.07-2.52,13.89-3.91,23.87-2.74,21.4,2.52,25.62,15.87,24.81,21.49s-5.3,8.68-6.79,9.62-2,1.26-1.84,1.93c.18,1,.9.94,2.16.76,1.75-.31,11.24-4.54,11.64-14.88C246.75,120.39,234.17,106,211.92,106.1ZM46.85,161.75c-7.1,7.73-17,10.65-21.26,8.18-4.59-2.65-2.79-14.07,5.93-22.25A113.24,113.24,0,0,1,48.2,135.23c1-.63,2.56-1.53,4.41-2.65l.49-.27h0l1.08-.67C57.37,143.32,54.31,153.61,46.85,161.75ZM98.55,126.6c-2.47,6-7.64,21.44-10.79,20.59-2.7-.72-4.36-12.41-.54-24,1.93-5.8,6-12.72,8.41-15.42,3.87-4.32,8.14-5.75,9.17-4C106.1,106.1,100.08,122.82,98.55,126.6ZM141.21,147c-1,.54-2,.9-2.47.63s.45-.9.45-.9,5.35-5.75,7.46-8.36c1.21-1.53,2.65-3.33,4.18-5.35v.58C150.83,140.49,144.17,145.12,141.21,147Zm32.9-7.51c-.76-.54-.63-2.34,1.93-8a30,30,0,0,1,7.33-9.44,12.72,12.72,0,0,1,.72,4.14C184,134.91,177.84,138.15,174.11,139.5Z"/></g></g></svg>