<svg xmlns="http://www.w3.org/2000/svg" viewBox="0 0 59.18 59.18"><defs><style>.cls-1{fill:#f16522;}.cls-2{fill:#fff;}</style></defs><title>logo-es6</title><g id="Layer_2" data-name="Layer 2"><g id="Layer_1-2" data-name="Layer 1"><rect class="cls-1" width="59.18" height="59.18"/><path class="cls-2" d="M24.4,37h9.05V34.52H27.19V30.7H33V28.24H27.19V24.67h6.26V22.2H24.4V37Zm21.15-4c0-3-.2-3.59-4.17-4.55-2.55-.62-2.6-.67-2.6-2.35,0-1.29.33-1.69,2.22-1.69a19.41,19.41,0,0,1,3.95.44l.31-2.35A20.16,20.16,0,0,0,41,22c-3.75,0-5,1.33-5,4,0,3.13.49,3.82,4.06,4.62,2.66.58,2.71.71,2.71,2.35,0,1.42-.33,1.84-2.35,1.84a13.92,13.92,0,0,1-4.17-.69l-.49,2.2a12.44,12.44,0,0,0,4.62.89c4.37,0,5.19-1.44,5.19-4.24Zm5.15-5.5c0-2.26,1.09-2.71,3.71-2.71a12.62,12.62,0,0,1,2.09.2l.18-2.26a12.87,12.87,0,0,0-2.55-.27c-4,0-6.12,1.24-6.12,5.15V33c0,2.55.75,4.24,4.57,4.24,3.48,0,4.55-1.73,4.55-4V32.1c0-2.55-1.09-3.66-3.77-3.66a8.24,8.24,0,0,0-2.64.4V27.46Zm2.22,3.31c1,0,1.49.33,1.49,1.4v1.09c0,1.13-.44,1.62-1.84,1.62s-1.86-.4-1.86-1.62v-2a5.81,5.81,0,0,1,2.22-.47Z"/></g></g></svg>