<svg xmlns="http://www.w3.org/2000/svg" viewBox="0 0 61.18 60.84"><defs><style>.cls-1{fill:#894181;}</style></defs><title>logo-jasmine</title><g id="Layer_2" data-name="Layer 2"><g id="Layer_1-2" data-name="Layer 1"><path class="cls-1" d="M28.22,25.19H33l1.18-1.61V11H27V23.58l1.18,1.61"/><path class="cls-1" d="M25.17,30.82l1.46-4.48-1.18-1.61-12.07-3.9-2.19,6.71,12.07,3.9,1.9-.62"/><path class="cls-1" d="M29.61,35.45l-3.83-2.77-1.91.62L16.41,43.51l5.74,4.14,7.46-10.21v-2"/><path class="cls-1" d="M35.41,32.68l-3.83,2.77v2L39,47.65l5.74-4.14L37.31,33.29l-1.9-.62"/><path class="cls-1" d="M34.55,26.34,36,30.82l1.91.62L50,27.53,47.8,20.83l-12.07,3.9-1.18,1.61"/><path class="cls-1" d="M30.59,0A30.42,30.42,0,1,0,61.18,30.41,30.54,30.54,0,0,0,30.59,0Zm0,6.16A24.26,24.26,0,1,1,6.19,30.41,24.33,24.33,0,0,1,30.59,6.16Z"/><path class="cls-1" d="M49.12,37.17l-9.18-3,.61-1.86,9.18,3-.61,1.86"/><path class="cls-1" d="M37.41,22.52l-1.59-1.15,5.67-7.76,1.59,1.15-5.67,7.76"/><path class="cls-1" d="M23.86,22.45l-5.67-7.76,1.59-1.15,5.67,7.76-1.59,1.15"/><path class="cls-1" d="M12,37.06l-.61-1.86,9.18-3,.61,1.86-9.18,3"/><path class="cls-1" d="M29.55,49.81h2v-9.6h-2v9.6Z"/></g></g></svg>