<svg xmlns="http://www.w3.org/2000/svg" viewBox="0 0 50 50"><defs><style>.cls-1{fill:#db395f;}.cls-2{fill:#fff;}</style></defs><title>logo-invision</title><g id="Layer_2" data-name="Layer 2"><g id="Layer_1-2" data-name="Layer 1"><path class="cls-1" d="M46,0H5C2.52,0,0,1.76,0,4.26V45.11A5.3,5.3,0,0,0,5,50H45.87c2.5,0,4.13-2.39,4.13-4.89V4.26A4,4,0,0,0,45.87,0"/><path class="cls-2" d="M17.18,15.43a3,3,0,1,0-3-3,3,3,0,0,0,3,3"/><path class="cls-2" d="M10.85,31.43a10.71,10.71,0,0,0-.27,2.3c0,2.65,1.43,4.42,4.48,4.42,2.53,0,4.58-1.42,6.05-3.85L20.22,38h5l2.87-11.57c.72-2.91,2.11-4.46,4.21-4.46A2.5,2.5,0,0,1,35,24.68a5.32,5.32,0,0,1-.22,1.61l-1.48,5.29A7.94,7.94,0,0,0,33,33.81c0,2.51,1.48,4.35,4.57,4.35,2.64,0,4.75-1.7,5.92-5.78l-2-.76c-1,2.73-1.84,3.23-2.51,3.23s-1-.45-1-1.34a5.94,5.94,0,0,1,.22-1.39L39.63,27a11.37,11.37,0,0,0,.49-3.27c0-3.85-2.33-5.87-5.16-5.87-2.64,0-5.33,2.28-6.68,4.79l1-4.61H21.61l-1.08,4h3.59l-2.21,8.93c-1.73,3.85-4.92,4-5.32,3.87-.66-.15-1.08-.38-1.08-1.23a9.1,9.1,0,0,1,.31-2.14L19.19,18H10.68L9.6,22h3.54l-2.29,9.43"/></g></g></svg>