<svg xmlns="http://www.w3.org/2000/svg" xmlns:xlink="http://www.w3.org/1999/xlink" viewBox="0 0 49.16 47.94"><defs><style>.cls-1{fill:url(#radial-gradient);}.cls-2{fill:#ff7719;}</style><radialGradient id="radial-gradient" cx="-127.23" cy="148.69" r="56.59" gradientTransform="translate(140.59 -159.33) scale(1.09)" gradientUnits="userSpaceOnUse"><stop offset="0" stop-color="#3a2c22"/><stop offset="0.01" stop-color="#392b21"/><stop offset="0.29" stop-color="#2c1b11"/><stop offset="0.6" stop-color="#241107"/><stop offset="1" stop-color="#220e04"/></radialGradient></defs><title>logo-ai</title><g id="Layer_2" data-name="Layer 2"><g id="Layer_1-2" data-name="Layer 1"><g id="icon"><rect class="cls-1" x="1.05" y="1.05" width="47.06" height="45.84"/><path class="cls-2" d="M47.06,2.1V45.84H2.1V2.1h45M49.16,0H0V47.94H49.16V0Z"/></g><g id="A"><path class="cls-2" d="M17.6,29.18l-2.28,6.32c0,.22-.19.29-.39.29H11.17c-.26,0-.32-.14-.26-.36,2.06-5.65,5.42-14.83,7.81-21.16a5.88,5.88,0,0,0,.32-2A.23.23,0,0,1,19.3,12h5.07a.27.27,0,0,1,.29.19c2.82,7.67,5.75,15.62,8.64,23.25.07.22,0,.32-.22.32H28.93a.3.3,0,0,1-.32-.22l-2.39-6.4-8.61,0Zm7.59-3.54c-.77-2.42-2.61-7.34-3.36-9.91h0c-.58,2.39-2.1,6.58-3.22,9.91Z"/></g><g id="i"><rect class="cls-2" x="34.22" y="18.05" width="4.2" height="17.76"/><circle class="cls-2" cx="36.31" cy="14.72" r="2.02"/></g></g></g></svg>