<svg xmlns="http://www.w3.org/2000/svg" viewBox="0 0 47 52.04"><defs><style>.cls-1{fill:#8bc74b;}</style></defs><title>logo-node</title><g id="Layer_2" data-name="Layer 2"><g id="Layer_1-2" data-name="Layer 1"><path class="cls-1" d="M21.4.56a4.36,4.36,0,0,1,4.26,0c6.49,3.66,12.9,7.32,19.39,11A4,4,0,0,1,47,15V37a4,4,0,0,1-2.1,3.52L25.55,51.51a4.21,4.21,0,0,1-4.29-.12L15.45,48a3.41,3.41,0,0,1-1.12-.81c.25-.33.69-.37,1.05-.52a13.6,13.6,0,0,0,2.3-1.07.54.54,0,0,1,.6,0c1.66,1,3.3,1.93,5,2.87.35.2.71-.07,1-.24l19-10.74a.63.63,0,0,0,.35-.62q0-10.91,0-21.82a.68.68,0,0,0-.41-.68L23.91,3.54a.67.67,0,0,0-.76,0L3.84,14.43a.67.67,0,0,0-.41.68q0,10.91,0,21.82a.62.62,0,0,0,.35.61l5.16,2.91a4,4,0,0,0,3.23.43,2.45,2.45,0,0,0,1.58-2.3c0-7.23,0-14.46,0-21.69a.54.54,0,0,1,.59-.56c.83,0,1.65,0,2.48,0a.57.57,0,0,1,.54.66c0,7.28,0,14.55,0,21.83a5.54,5.54,0,0,1-2.59,5,8,8,0,0,1-7.12-.2C5.76,42.7,4,41.58,2.14,40.57A4,4,0,0,1,0,37V15A4,4,0,0,1,2.05,11.5L21.4.56Z"/><path class="cls-1" d="M27,15.83c2.82-.18,5.84-.11,8.37,1.28a6.33,6.33,0,0,1,3.09,5.48.59.59,0,0,1-.64.44c-.82,0-1.64,0-2.45,0a.63.63,0,0,1-.59-.61A3.74,3.74,0,0,0,33,19.83a10.59,10.59,0,0,0-4.9-.7,6.65,6.65,0,0,0-3.51.87,2.22,2.22,0,0,0-.74,2.48c.26.62,1,.83,1.57,1,3.4.89,7,.8,10.33,2A4.86,4.86,0,0,1,39,28.31a6.08,6.08,0,0,1-1,5.8,8.13,8.13,0,0,1-4.37,2.35,21,21,0,0,1-6.59.28,10.39,10.39,0,0,1-5.8-2.18,6.08,6.08,0,0,1-2-4.8.55.55,0,0,1,.6-.48h2.47a.58.58,0,0,1,.59.57,3.75,3.75,0,0,0,1.39,2.63c1.67,1.08,3.77,1,5.69,1,1.59-.07,3.37-.09,4.67-1.14a2.58,2.58,0,0,0,.7-2.46c-.2-.73-1-1.07-1.61-1.29-3.35-1.06-7-.68-10.32-1.88A5,5,0,0,1,20.25,24a5.66,5.66,0,0,1,1.13-5.89A9.12,9.12,0,0,1,27,15.83Z"/></g></g></svg>