<svg xmlns="http://www.w3.org/2000/svg" viewBox="0 0 158.08 181.02"><defs><style>.cls-1{fill:#e92426;}</style></defs><title>logo-adobe_1</title><g id="Layer_2" data-name="Layer 2"><g id="Layer_1-2" data-name="Layer 1"><path d="M147.26,9.14h1.09c1.35,0,2.46-.45,2.46-1.64,0-.9-.65-1.72-2.38-1.72a8.45,8.45,0,0,0-1.18,0Zm0,5.77h-1.85V4.68a18.8,18.8,0,0,1,3.07-.28,5.42,5.42,0,0,1,3.31.82,2.54,2.54,0,0,1,.91,2.13,2.47,2.47,0,0,1-2,2.45v.09c.89.16,1.47,1,1.67,2.49a9.23,9.23,0,0,0,.62,2.54h-1.89a8,8,0,0,1-.66-2.62,1.87,1.87,0,0,0-2.16-1.72h-1.06Zm1.67-13A7.48,7.48,0,0,0,141.6,9.6a7.33,7.33,0,1,0,14.65,0A7.44,7.44,0,0,0,149,1.94Zm0-1.55a9.11,9.11,0,0,1,9.12,9.16A9.2,9.2,0,1,1,148.93.39Z"/><path d="M17.61,164.49l-1.53-9.11c-.44-2.63-1-6.73-1.43-9.56h-.17c-.45,2.86-1.08,7.08-1.54,9.58l-1.65,9.1Zm-7.14,5.93-2,10.1H1.08l9.21-42h9l8.36,42H20.28l-2-10.1Z"/><path d="M44.49,161.74a10.4,10.4,0,0,0-.11-1.81c-.29-2.08-1.4-3.95-3.17-3.95-3,0-4.16,4.39-4.16,9.52,0,5.9,1.59,9.26,4.05,9.26,1.13,0,2.43-.58,3.14-3.05a6.3,6.3,0,0,0,.26-1.93Zm7.57-24.37v34.44c0,2.73.15,6.09.25,8.71H45.78l-.43-3.5h-.16a7.3,7.3,0,0,1-6.34,4c-6.27,0-9.37-6.92-9.37-15.65,0-10.63,4.63-15.8,9.68-15.8a5.36,5.36,0,0,1,5.21,3.16h.12V137.37Z"/><path d="M67.85,175.2c2.89,0,3.6-5.45,3.6-10,0-4.29-.72-9.88-3.73-9.88-3.19,0-3.87,5.59-3.87,9.88,0,5.18.85,10,3.93,10ZM67.71,181c-7,0-11.36-5.62-11.36-15.64,0-11,5.61-15.82,11.53-15.82,6.89,0,11.21,5.88,11.21,15.64,0,12.54-6.77,15.82-11.32,15.82Z"/><path d="M90.9,169.65a6.21,6.21,0,0,0,.3,1.94c.75,2.55,2,3.17,3.08,3.17,2.92,0,4.11-3.71,4.11-9.65,0-5.4-1.25-9.13-4.14-9.13-1.44,0-2.65,1.56-3.07,3.24a8.35,8.35,0,0,0-.28,1.91Zm-7.57-32.28H90.9v15.87H91a7.1,7.1,0,0,1,6.36-3.68c5.72,0,8.58,6.49,8.58,15,0,10.73-4.28,16.48-9.82,16.48-2.65,0-4.4-1.18-6-4.15H90l-.43,3.65h-6.5c.11-2.53.26-6,.26-8.71Z"/><path d="M124.11,162.39c0-4.28-1.21-7.27-3.61-7.27-2.74,0-3.91,4-4,7.27Zm-7.63,5.36c.09,5.5,3,7.3,6.57,7.3a16.17,16.17,0,0,0,5.68-1l1,5.45a22,22,0,0,1-8.08,1.4c-8.13,0-12.57-5.55-12.57-15,0-10.18,5.14-16.3,11.88-16.3,6.5,0,10.09,5.41,10.09,14.24a28.11,28.11,0,0,1-.21,4Z"/><polygon class="cls-1" points="82.63 0 131.07 0 131.07 116.01 82.63 0"/><polygon class="cls-1" points="48.49 0 0 0 0 116.01 48.49 0"/><polygon class="cls-1" points="65.56 42.76 96.43 116.01 76.2 116.01 66.97 92.67 44.37 92.67 65.56 42.76"/></g></g></svg>