<svg xmlns="http://www.w3.org/2000/svg" viewBox="0 0 57 42"><defs><style>.cls-1{fill:#bd6e93;}.cls-2{fill:#b76c90;}.cls-3{fill:#ac6e8d;}.cls-4{fill:#9f6e88;}.cls-5{fill:#a2748a;}.cls-6{fill:#cb6597;}.cls-7{fill:#af6b8a;}.cls-8{fill:#b17494;}.cls-9{fill:#a96a86;}</style></defs><title>logo-sass</title><g id="Layer_2" data-name="Layer 2"><g id="Layer_1-2" data-name="Layer 1"><path class="cls-1" d="M57,31.23c-1,1.4-1.56,2.59-3.33,2.69,1-.93,2.16-1.8,2.12-3.33.36.13.21.61,1.21.21Z"/><path class="cls-2" d="M42.1,17.81c-.2.69-.76.66-1.31.63s-.91.12-.94.9c0,.58,0,1.52-1,1.69.21-.76.37-1.53.65-2.26C40,17.51,41.13,17.85,42.1,17.81Z"/><path class="cls-3" d="M35.18,19.75c-1,.05-2.07-.26-2.86.69-.07.08-.17-.16-.19-.29A2.65,2.65,0,0,1,35.18,19.75Z"/><path class="cls-4" d="M18.49,19.48a6.36,6.36,0,0,1,3.23,0A18.5,18.5,0,0,1,18.49,19.48Z"/><path class="cls-2" d="M42.68,19.71A4,4,0,0,1,42.56,18c.48,0,.6.3.44.74S42.79,19.37,42.68,19.71Z"/><path class="cls-5" d="M35.75,8.24a3.27,3.27,0,0,1,0-2.13A6.19,6.19,0,0,1,35.75,8.24Z"/><path class="cls-6" d="M51.77,24.79a11.09,11.09,0,0,0-7.06.42c-.71.29-1.08.2-1.44-.5a6.74,6.74,0,0,1-.57-5c-.16-.58.32-1.2-.13-1.76a.42.42,0,0,0-.47-.15,2.19,2.19,0,0,1-1.31.36c-.68,0-1.08.25-1.14,1.06a2.56,2.56,0,0,1-.78,1.8,55,55,0,0,1-3.11,5.41,6.32,6.32,0,0,1-.54-5.39c.14-.45.37-.88,0-1.3a3.91,3.91,0,0,0-3.05.4,107.87,107.87,0,0,1-5.7,12.69,2.88,2.88,0,0,1,0-1.84c.37-1.54.78-3.07,1.16-4.6.19-.74.12-1.63-.75-1.54-1.21.12-.91-.56-.93-1.17-.06-1.79-1.11-2.54-2.81-2a8.35,8.35,0,0,0-3.43,2.56,3.78,3.78,0,0,1-1,.86l-4.54,2.51c-.34.19-.59.29-.93-.06-1.66-1.67-3.66-2.92-5.42-4.47s-3.36-3.39-3-6.12a8,8,0,0,1,2.46-4.58A31.37,31.37,0,0,1,23.17,4a11.84,11.84,0,0,1,7.64.48,3.08,3.08,0,0,1,2,3.26,8.5,8.5,0,0,1-3.21,5.69A17,17,0,0,1,19.2,17.7a6.36,6.36,0,0,1-4.84-1.45c-.23-.2-.42-.64-.77-.35s0,.6.09.89a3.06,3.06,0,0,0,.87,1.08,6.65,6.65,0,0,0,3.93,1.6,17,17,0,0,1,3.23,0A18.43,18.43,0,0,0,27.56,18c4.26-2,7.3-5,8.2-9.76a10.89,10.89,0,0,1,0-2.13C35.39,3.43,33.59,1.91,31.27,1c-1-.4-2.16,0-3.25-1H23.9a13.23,13.23,0,0,0-4.23.78C13.83,2.79,8.09,5.46,3.74,10A18.69,18.69,0,0,0,0,16.27v2.17c1,1.49,1.29,2.74,2.31,3.84A26.88,26.88,0,0,0,7.2,26.35c1,.66,2,1.38,3,2.06.6.41.64.7,0,1.05a26,26,0,0,0-4.43,2.88C4.35,33.47,3,34.5,2.42,36.26,1.4,39.2,2.57,42,5.27,42H7.65a7.4,7.4,0,0,0,5.9-3.23,9.42,9.42,0,0,0,1.7-8.33c-.19-.84-.05-1.28.72-1.59.38-.15.69-.48,1.15-.5,0,.54-.21,1-.11,1.47a20.32,20.32,0,0,1,0,3.66A5.72,5.72,0,0,0,18,36.22a2.28,2.28,0,0,0,3.88.15,14.33,14.33,0,0,0,1.58-3.11,4.18,4.18,0,0,0,.26,2.14,1.56,1.56,0,0,0,2.66.73,5.92,5.92,0,0,0,1.48-1.84c1.16-2.12,2.33-4.24,3.27-6.47.36-.84.71-1.69,1.19-2.76a8.86,8.86,0,0,0,.95,2.81,1.71,1.71,0,0,1-.2,2.15c-.92,1.25-2.16,2.23-3,3.58s-.27,2.17,1.18,2.19a6.66,6.66,0,0,0,5.42-2.46,2.07,2.07,0,0,0,.56-1.48,6.48,6.48,0,0,1,0-2.08c.05-.61-.48-1.22-.12-1.79.94-1.46,1.75-3,2.66-4.57.41.76.35,1.55.87,2.1.5.38,1.08.74.44,1.46a16.4,16.4,0,0,0-1.31,1.28A6.94,6.94,0,0,0,38,31.78,1.73,1.73,0,0,0,39.83,34a5.51,5.51,0,0,0,5-6.17c-.05-.47,0-.76.51-.9a10.79,10.79,0,0,1,6.59.23,5.76,5.76,0,0,1,3.57,3.54c.41.29.48.79,1.48.1V29.71A7.34,7.34,0,0,0,51.77,24.79ZM8.33,39.2c-.79.28-1.67.55-2.34-.11s-.39-1.63-.13-2.43a6.27,6.27,0,0,1,2-2.78,30,30,0,0,1,3.84-2.77c1-.64,1.12-.59,1.2.67,0,.25,0,.5,0,.65A7.16,7.16,0,0,1,8.33,39.2ZM23.93,25.71a47.17,47.17,0,0,1-2.55,6.87,6.76,6.76,0,0,1-.47.85c-.13.21-.28.49-.56.45s-.43-.39-.49-.65c-.13-.56-.19-1.13-.25-1.52a11.54,11.54,0,0,1,2.54-6.83l.07-.08c.51-.45,1.09-1.16,1.73-.82S24.09,25.14,23.93,25.71ZM32,34l2.58-3C34.44,32.71,33.36,33.51,32,34Zm8-1.79A5.9,5.9,0,0,1,42,28.43C42.64,30.14,41.81,31.68,39.92,32.26Z"/><path class="cls-7" d="M17.24,33.59a10.8,10.8,0,0,1,0-3.87A9.64,9.64,0,0,1,17.24,33.59Z"/><path class="cls-8" d="M41.42,27.1c0-.65-.55-1.1-.61-1.72C41.62,25.73,42,26.25,41.42,27.1Z"/><path class="cls-9" d="M37.07,29.72a5.74,5.74,0,0,1,0,2.15A2.9,2.9,0,0,1,37.07,29.72Z"/></g></g></svg>