<svg xmlns="http://www.w3.org/2000/svg" viewBox="0 0 47.79 55"><defs><style>.cls-1{fill:#ec1c24;}</style></defs><title>logo-adobe</title><g id="Layer_2" data-name="Layer 2"><g id="Layer_1-2" data-name="Layer 1"><path d="M44.55,3.09h.33c.41,0,.74-.13.74-.49s-.2-.52-.71-.52h-.36v1Zm0,1.91H44V1.75a3.4,3.4,0,0,1,.92-.09,1.61,1.61,0,0,1,1,.25c.17.13.47.34.47.64S46,3.2,46,3.29v0a3.09,3.09,0,0,1,.29.84,5.63,5.63,0,0,1,0,.85h-.56c-.07,0-.14-.23-.2-.63S45.24,4,44.86,4H45v.82ZM45,1a2.21,2.21,0,0,0-2.2,2.26,2.23,2.23,0,0,0,2.21,2.28,2.2,2.2,0,0,0,2.18-2.27A2.21,2.21,0,0,0,45.06,1Zm0-1a2.94,2.94,0,0,1,2.73,3A2.84,2.84,0,0,1,45,5.87a2.91,2.91,0,0,1-2.77-2.95A2.91,2.91,0,0,1,45,0Z"/><path d="M5.69,50l-.46-2.93C5.1,46.28,4.93,45,4.8,44h0c-.13,1-.32,2.32-.46,3.08L3.79,50ZM3.55,51l-.6,3H.74L3.5,42H6.21L8.71,54H6.49L5.9,51Z"/><path d="M14,48.83a3.74,3.74,0,0,0-.16-.54c-.09-.62-.48-1.18-1-1.18-.91,0-1.28,1.32-1.28,2.85,0,1.77.46,2.77,1.2,2.77a1.1,1.1,0,0,0,1.06-.91,1.64,1.64,0,0,0,.2-.58ZM16,42v9.84A21,21,0,0,0,16.09,54h-2L14,53h0a1.87,1.87,0,0,1-1.9,1.4c-1.88,0-2.81-2-2.81-4.59,0-3.19,1.39-4.75,2.9-4.75.79,0,1.3.94,1.56.94H14V42Z"/><path d="M20.75,53c.87,0,1.08-1.7,1.08-3.06s-.21-3-1.12-3-1.16,1.73-1.16,3c0,1.55.25,3,1.18,3Zm0,2c-2.09,0-3.4-1.88-3.4-4.89,0-3.28,1.68-4.84,3.46-4.84,2.06,0,3.36,1.91,3.36,4.84,0,3.76-2,4.89-3.39,4.89Z"/><path d="M28,51.19c0,.23-.13.44-.08.58.23.76.53,1,.84,1,.88,0,1.19-1.11,1.19-2.89,0-1.62-.4-2.74-1.26-2.74-.43,0-.63.47-.76,1,0,.16.08.4.08.57ZM25.38,42H28v4h-.31c.45,0,1-1,1.91-1,1.71,0,2.57,2,2.57,4.56,0,3.22-1.28,4.79-2.94,4.79-.79,0-1.32-.39-1.79-1.39h0l-.13,1H25.31A17.83,17.83,0,0,1,25,51.84V41.52Z"/><path d="M37.61,49c0-1-.36-2.18-1.08-2.18S35.35,48,35.33,49Zm-2.29,1.62c0,1.65.89,2.19,2,2.19A4.85,4.85,0,0,0,39,52.5l.31,1.63a6.63,6.63,0,0,1-2.42.42c-2.44,0-3.77-1.67-3.77-4.51,0-3.05,1.54-4.88,3.56-4.88s3,1.62,3,4.26a8.11,8.11,0,0,1-.06,1.21Z"/><polygon class="cls-1" points="25.18 0 40 0 40 35.12 25.18 0"/><polygon class="cls-1" points="14.94 0 0 0 0 35.12 14.94 0"/><polygon class="cls-1" points="20.06 13.04 29.31 35 23.25 35 20.48 28 13.71 28 20.06 13.04"/></g></g></svg>